PathFileType	4	(X/Y/Z)	Walk10.trc
DataRate	CameraRate	NumFrames	NumMarkers	Units	OrigDataRate	OrigDataStartFrame	OrigNumFrames
200.000000	200.000000	6	56	mm	200.000000	298	519
Frame#	Times		RBHD		C7		RASI		RACR1		RUA1		RElbow		RFA1		LFA1		RTH3		RTH2		RTB1		RTB3		RMT1		LTH2		RMT5		RLFC		LElbowM		RTH1		RWRU		RTB2		LElbow		RTB4		RMMAL		LACR1		LTH3		LTH4		LWRU		CLAV		LASI		LTB1		LPSI		RPSI		T10		LLFC		RTH4		LBHD		RCAR		LTB3		LTH1		LTB4		RToe		LWRR		LMT1		RBack		LMMAL		LCAL		LFHD		LTB2		LLMAL		RLMAL		LCAR		LToe		LMT5		RElbowM		LUA1		RCAL
			X1	Y1	Z1	X2	Y2	Z2	X3	Y3	Z3	X4	Y4	Z4	X5	Y5	Z5	X6	Y6	Z6	X7	Y7	Z7	X8	Y8	Z8	X9	Y9	Z9	X10	Y10	Z10	X11	Y11	Z11	X12	Y12	Z12	X13	Y13	Z13	X14	Y14	Z14	X15	Y15	Z15	X16	Y16	Z16	X17	Y17	Z17	X18	Y18	Z18	X19	Y19	Z19	X20	Y20	Z20	X21	Y21	Z21	X22	Y22	Z22	X23	Y23	Z23	X24	Y24	Z24	X25	Y25	Z25	X26	Y26	Z26	X27	Y27	Z27	X28	Y28	Z28	X29	Y29	Z29	X30	Y30	Z30	X31	Y31	Z31	X32	Y32	Z32	X33	Y33	Z33	X34	Y34	Z34	X35	Y35	Z35	X36	Y36	Z36	X37	Y37	Z37	X38	Y38	Z38	X39	Y39	Z39	X40	Y40	Z40	X41	Y41	Z41	X42	Y42	Z42	X43	Y43	Z43	X44	Y44	Z44	X45	Y45	Z45	X46	Y46	Z46	X47	Y47	Z47	X48	Y48	Z48	X49	Y49	Z49	X50	Y50	Z50	X51	Y51	Z51	X52	Y52	Z52	X53	Y53	Z53	X54	Y54	Z54	X55	Y55	Z55	X56	Y56	Z56

298	1.49	-12.717	1583.1	423.43	-56.655	1446.4	359.59	6.9156	947.46	489.7	22.332	1395.4	497.36	19.967	1212.5	592.91	18.407	1083	637.03	133.48	981.27	640.95	-109	991.16	38.107	-99.328	558.69	496.62	-18.341	648.43	485.1	-105.43	361.14	389.8	-159.52	178.77	377.3	-91.481	38.984	331.41	128.42	708.21	178.08	-122.99	32.16	420.41	-119.5	455.38	476.1	-190.77	1131.3	161.35	-72.376	744.13	528.23	196.81	869.9	620.95	-143.35	267.83	457.34	-179.83	1131.7	82.502	-129.98	271.41	385.48	-211.93	102.86	324.3	-38.725	1434.3	179.31	110.67	593.75	166.89	66.209	670.65	148.96	-131.12	873.81	45.789	72.179	1359.5	330.58	14.158	948.7	183.96	196.55	402.12	240.68	-161.69	967.54	274.05	-169.27	973.78	377.95	-167.63	1141.5	336.55	142.1	487.21	186.15	-84.936	649.69	515.98	-15.906	1586.2	284.84	263.98	855.49	621.82	180.03	217.75	255.19	19.977	756.86	142.92	186.43	309.77	248.33	-36.019	24.794	354.85	-54.229	885.83	70.261	274.38	63.593	295.13	-120.92	1351.2	465.4	151.65	112.38	318.82	73.351	46.202	289.71	169.2	1592.5	304.61	149.52	307.65	185.95	110.61	91.904	238.16	-240.53	87.601	410.07	-61.626	832.19	23.845	309.25	79.301	270.01	244.09	55.359	218.27	-3.7514	1042.5	549.47	-123.27	1251.9	91.096	-295.91	44.833	366.69
299	1.495	-5.8471	1582.4	423.21	-49.664	1445.4	359.39	13.329	946.49	489.68	29.14	1394.7	497.44	28.128	1212.2	593.27	27.602	1082.8	637.93	144.57	982.98	641.17	-104.3	989.61	38.222	-95.303	558.31	496.74	-13.441	647.36	485.09	-102.71	360.64	390.06	-158.66	178.6	377.28	-91.418	38.947	331.38	135.47	707.06	178.63	-123.12	32.717	420.43	-116.1	454.89	476.08	-184.53	1130.3	162.16	-66.553	743.5	528.18	209.65	872.85	621	-141.67	267.77	457.23	-173.38	1130.5	83.022	-128.5	271.53	385.33	-211.4	103.22	324.42	-31.916	1433.2	179.44	117.3	592.52	167.73	73.293	669.6	149.17	-127.61	872.41	45.93	79.186	1358.6	330.67	21.22	947.76	184.05	205.05	402.6	241.53	-155.16	966.44	273.3	-162.66	972.95	377.54	-160.57	1140.4	336.55	148.4	485.74	186.95	-80.198	649.19	516.24	-9.2472	1584.9	284.65	277.01	860	621.3	196.03	217.55	255.89	26.399	755.5	143.12	198.81	310.15	249.02	-35.973	24.739	354.77	-50.563	883.6	70.083	296.74	65.901	296.33	-113.72	1350.4	465.7	171.58	111.45	319.04	95.983	42.836	290.11	175.69	1591.6	304.24	162.2	306.49	186.53	132.15	89.123	238.52	-239.82	88.258	410.15	-58.553	830.28	23.468	331.63	81.79	271.29	266.89	56.381	219.43	5.7161	1041.9	550.42	-116.74	1250.8	91.511	-295.8	45.741	366.59
300	1.5	0.89247	1581.5	423.07	-42.612	1444.3	359.61	19.607	945.24	490.15	36.061	1394.2	497.45	35.889	1211.9	593.62	36.342	1083	638.49	155.2	984.89	641.33	-99.57	988.04	38.566	-91.228	557.94	496.69	-8.4578	646.38	485.03	-100.06	360.08	390.32	-157.51	178.47	377.66	-91.416	38.854	331.4	142.28	705.78	179.23	-122.97	32.349	420.48	-112.73	454.48	475.85	-177.83	1129.3	163.08	-61.094	742.96	528.18	222.4	876.1	620.95	-139.75	267.52	457.3	-167.19	1129.4	84.164	-126.53	271.1	385.54	-210.88	103.55	324.46	-24.895	1432.1	179.29	123.8	591.26	168.45	80.224	668.45	149.29	-123.71	871.24	46.469	85.845	1357.7	331.08	29.016	946.74	184.17	213.01	403.15	242.59	-147.76	964.94	273.51	-155.78	971.97	377.3	-153.6	1139.5	336.33	154.34	483.99	187.9	-75.276	648.7	515.97	-2.5904	1583.6	284.35	289.58	864.1	621.09	211.78	217.82	256.24	33.049	754.13	143.55	210.68	310.26	249.85	-35.765	24.658	354.23	-46.652	881.69	69.795	318.45	68.657	297.89	-106.94	1349.3	465.68	191.59	111.02	319.22	118.35	39.987	290.5	182.54	1590.7	303.64	174.79	305.49	186.94	153.12	86.975	238.74	-239.35	88.945	410.33	-55.454	828.32	23.163	353.53	85.078	272.89	289.28	57.802	220.58	15.27	1041.3	551.24	-110.03	1249.5	91.922	-295.7	46.635	366.46
301	1.505	7.808	1580.7	422.93	-35.805	1443.5	359.99	25.694	944.23	490.51	43.208	1393.3	497.52	43.618	1211.6	594.06	45.33	1082.8	639.36	165.55	986.68	641.59	-94.603	986.47	38.7	-86.668	557.44	496.68	-3.5598	645.56	484.98	-97.434	359.69	390.21	-156.08	178.61	377.74	-91.324	38.867	330.99	149.12	704.16	179.75	-122.91	32.056	420.48	-109.33	454.44	476.1	-170.79	1128.1	164.15	-55.517	742.39	528.44	234.97	879.21	620.7	-137.91	267.55	457.29	-160.73	1128.3	84.997	-124.57	270.74	385.62	-210.47	103.95	324.53	-17.891	1431	179.36	129.87	589.75	169.19	86.755	667.11	149.63	-120.05	869.73	46.659	92.99	1356.7	331.29	36.425	945.66	184.28	221	403.62	243.33	-140.22	963.85	273.14	-148.94	970.96	376.8	-146.62	1138.5	335.99	160.21	482.13	188.91	-70.255	648.38	516.14	4.4602	1582.4	283.94	302.19	868.5	620.86	227.19	218.41	256.9	40.288	753.31	143.57	222.43	310.6	250.59	-35.787	24.604	354.11	-42.48	879.33	69.731	339.84	71.896	299.51	-99.564	1348.6	466.12	211.21	110.93	319.65	140.05	37.763	290.65	189.44	1589.9	303.08	187.01	304.48	187.49	173.82	85.463	239.4	-239.11	89.471	410.49	-52.269	826.08	22.903	374.82	88.635	274.67	311.04	59.746	222	24.827	1040.7	552.07	-103.33	1248.3	92.191	-295.52	47.557	366.56
302	1.51	14.817	1579.7	422.75	-28.655	1442.5	360.36	31.947	943.24	490.87	50.282	1392.7	497.39	51.388	1211.2	594.46	54.47	1082.6	640.3	176.36	988.38	641.68	-89.703	985.01	38.993	-82.115	556.91	496.78	1.5468	644.51	484.99	-94.826	359.12	390.22	-155.15	178.56	377.62	-91.316	38.606	331.02	155.8	702.43	180.42	-122.87	32.019	420.46	-105.93	454.25	476.22	-163.83	1127.1	164.95	-49.803	741.79	528.41	246.72	881.9	620.23	-135.89	267.35	457.39	-153.87	1127.4	85.425	-122.59	270.33	385.65	-209.96	104.47	324.47	-11.067	1430.1	179.2	135.9	588.08	169.84	93.544	665.71	149.78	-116.5	868.39	46.802	100.12	1355.6	331.33	43.774	944.57	184.34	228.92	404.12	244	-132.91	963	272.41	-141.95	969.88	376.26	-139.57	1137.6	335.67	166.48	480.34	189.91	-64.996	647.97	516.47	11.195	1581.1	283.7	314.63	872.64	620.46	242.6	219.1	257.26	47.76	752.32	143.18	233.76	311.17	251.15	-35.725	24.508	353.92	-38.412	877.24	69.441	360.76	75.349	300.75	-92.682	1347.7	466.22	230.18	111	320.28	161.88	35.726	291.07	196.26	1589.3	302.8	198.89	303.61	188.16	193.97	84.442	239.76	-238.77	89.927	410.4	-49.093	824.09	22.628	395.63	92.752	276.44	332.6	62.519	223.22	34.146	1040.1	552.87	-96.236	1247.1	92.558	-295.33	48.46	366.56
303	1.515	21.79	1578.9	422.25	-21.86	1441.2	360.18	38.532	942.38	491.07	57.175	1391.9	497.31	59.359	1210.8	594.81	63.267	1082.3	641.12	186.65	990.1	642.1	-84.624	983.43	39.269	-78.059	556.62	496.86	6.3792	643.69	484.88	-92.054	358.53	390.09	-153.82	178.71	377.71	-91.227	38.459	331.07	162.34	700.34	181.16	-122.86	31.834	420.64	-102.4	454.02	476.16	-156.82	1126.1	165.63	-43.916	741.24	528.58	258.61	884.78	620.26	-133.89	267.32	457.33	-147.29	1126.5	85.961	-120.41	270.2	385.84	-209.37	105.03	324.44	-4.0472	1428.6	179.33	142.04	586.29	170.28	100.16	664.06	150.06	-112.25	867.08	47.195	107.15	1354.6	331.43	51.523	943.63	184.36	236.78	404.25	244.74	-125.36	962	272.13	-134.96	968.73	375.84	-132.64	1136.5	335.45	172.54	478.43	190.97	-59.92	647.54	516.88	18.155	1580.1	283.29	326.54	876.82	620.07	257.36	220.08	257.83	55.057	751.17	142.92	244.98	311.68	252.04	-35.683	24.181	353.89	-34.221	875.05	69.27	380.67	79.563	301.89	-85.931	1346.5	466.13	248.67	111.72	320.66	182.73	34.364	291.33	202.99	1588.3	302.58	210.57	303.15	188.84	213.56	83.76	240.14	-238.46	90.681	410.37	-45.717	822.14	22.376	415.79	97.416	278.24	353.18	65.757	224.29	43.228	1039.5	553.57	-89.558	1245.8	92.909	-295.06	49.471	366.85
